<svg xmlns="http://www.w3.org/2000/svg" xmlns:xlink="http://www.w3.org/1999/xlink" width="320" zoomAndPan="magnify" viewBox="0 0 240 98.999996" height="96" preserveAspectRatio="xMidYMid meet" version="1.0"><defs><g/><clipPath id="29a098f448"><path d="M 171 38 L 205.363281 38 L 205.363281 63.839844 L 171 63.839844 Z M 171 38 " clip-rule="nonzero"/></clipPath><clipPath id="ac1d79f03f"><path d="M 176 33.496094 L 205.363281 33.496094 L 205.363281 62 L 176 62 Z M 176 33.496094 " clip-rule="nonzero"/></clipPath><clipPath id="f5e6162c0e"><path d="M 170.28125 34 L 201 34 L 201 63.839844 L 170.28125 63.839844 Z M 170.28125 34 " clip-rule="nonzero"/></clipPath><clipPath id="e913c55a8e"><path d="M 170.28125 33.496094 L 201 33.496094 L 201 63.839844 L 170.28125 63.839844 Z M 170.28125 33.496094 " clip-rule="nonzero"/></clipPath></defs><path stroke-linecap="butt" transform="matrix(0.75, 0, 0, 0.75, -68.77239, 28.875255)" fill="none" stroke-linejoin="miter" d="M 148.571533 8.098619 L 152.680908 8.098619 L 152.680908 43.442372 L 174.472576 43.442372 L 174.472576 46.999664 L 148.571533 46.999664 Z M 192.425703 8.098619 L 196.535078 8.098619 L 196.535078 46.999664 L 192.425703 46.999664 Z M 252.837166 8.098619 L 252.837166 46.999664 L 249.446541 46.999664 L 224.436122 15.426745 L 224.436122 46.999664 L 220.326747 46.999664 L 220.326747 8.098619 L 223.717372 8.098619 L 248.779874 39.661122 L 248.779874 8.098619 Z M 288.691336 28.707996 L 280.743418 36.770497 L 280.743418 46.999664 L 276.628835 46.999664 L 276.628835 8.098619 L 280.743418 8.098619 L 280.743418 31.598621 L 303.576754 8.098619 L 308.316337 8.098619 L 291.472586 25.707996 L 309.483004 46.999664 L 304.581962 46.999664 Z M 288.691336 28.707996 " stroke="#000000" stroke-width="2.918401" stroke-opacity="1" stroke-miterlimit="4"/><g fill="#38b6ff" fill-opacity="1"><g transform="translate(37.903382, 64.125252)"><g><path d="M 4.75 -29.1875 L 7.84375 -29.1875 L 7.84375 -2.671875 L 24.171875 -2.671875 L 24.171875 0 L 4.75 0 Z M 4.75 -29.1875 "/></g></g></g><g fill="#38b6ff" fill-opacity="1"><g transform="translate(70.793356, 64.125252)"><g><path d="M 4.75 -29.1875 L 7.84375 -29.1875 L 7.84375 0 L 4.75 0 Z M 4.75 -29.1875 "/></g></g></g><g fill="#38b6ff" fill-opacity="1"><g transform="translate(91.720112, 64.125252)"><g><path d="M 29.140625 -29.1875 L 29.140625 0 L 26.59375 0 L 7.84375 -23.671875 L 7.84375 0 L 4.75 0 L 4.75 -29.1875 L 7.296875 -29.1875 L 26.09375 -5.5 L 26.09375 -29.1875 Z M 29.140625 -29.1875 "/></g></g></g><g fill="#38b6ff" fill-opacity="1"><g transform="translate(133.947228, 64.125252)"><g><path d="M 13.796875 -13.71875 L 7.84375 -7.671875 L 7.84375 0 L 4.75 0 L 4.75 -29.1875 L 7.84375 -29.1875 L 7.84375 -11.546875 L 24.96875 -29.1875 L 28.515625 -29.1875 L 15.890625 -15.96875 L 29.390625 0 L 25.71875 0 Z M 13.796875 -13.71875 "/></g></g></g><g fill="#38b6ff" fill-opacity="1"><g transform="translate(171.919, 64.125252)"><g/></g></g><g fill="#38b6ff" fill-opacity="1"><g transform="translate(191.178408, 64.125252)"><g/></g></g><g clip-path="url(#29a098f448)"><path fill="#000000" d="M 203.3125 63.824219 L 172.332031 63.824219 C 172.144531 63.824219 171.972656 63.726562 171.882812 63.566406 C 171.789062 63.40625 171.789062 63.210938 171.882812 63.050781 L 185.839844 39.039062 C 185.933594 38.878906 186.105469 38.78125 186.289062 38.78125 C 186.476562 38.78125 186.648438 38.878906 186.738281 39.039062 L 188.273438 41.675781 C 188.367188 41.835938 188.367188 42.03125 188.273438 42.191406 L 177.828125 60.15625 L 204.84375 60.15625 C 205.03125 60.15625 205.203125 60.253906 205.296875 60.414062 C 205.386719 60.574219 205.386719 60.769531 205.296875 60.929688 L 203.761719 63.566406 C 203.671875 63.726562 203.5 63.824219 203.3125 63.824219 Z M 173.230469 62.792969 L 203.011719 62.792969 L 203.945312 61.1875 L 176.929688 61.1875 C 176.742188 61.1875 176.570312 61.089844 176.480469 60.929688 C 176.386719 60.769531 176.386719 60.574219 176.480469 60.414062 L 187.222656 41.933594 L 186.289062 40.332031 Z M 173.230469 62.792969 " fill-opacity="1" fill-rule="nonzero"/></g><g clip-path="url(#ac1d79f03f)"><path fill="#000000" d="M 204.84375 61.1875 L 176.929688 61.1875 C 176.742188 61.1875 176.570312 61.089844 176.480469 60.929688 C 176.386719 60.769531 176.386719 60.574219 176.480469 60.414062 L 178.011719 57.777344 C 178.105469 57.617188 178.273438 57.519531 178.460938 57.519531 L 199.347656 57.519531 L 185.839844 34.285156 C 185.746094 34.125 185.746094 33.925781 185.839844 33.769531 C 185.933594 33.609375 186.105469 33.507812 186.289062 33.507812 L 189.355469 33.507812 C 189.539062 33.507812 189.710938 33.609375 189.804688 33.769531 L 205.296875 60.414062 C 205.386719 60.574219 205.386719 60.769531 205.296875 60.929688 C 205.203125 61.089844 205.03125 61.1875 204.84375 61.1875 Z M 177.828125 60.15625 L 203.945312 60.15625 L 189.054688 34.542969 L 187.191406 34.542969 L 200.699219 57.777344 C 200.789062 57.9375 200.789062 58.132812 200.699219 58.292969 C 200.605469 58.453125 200.433594 58.550781 200.246094 58.550781 L 178.761719 58.550781 Z M 177.828125 60.15625 " fill-opacity="1" fill-rule="nonzero"/></g><g clip-path="url(#f5e6162c0e)"><path fill="#38b6ff" d="M 200.246094 58.035156 L 186.289062 34.027344 L 170.800781 60.671875 L 172.332031 63.308594 L 186.289062 39.296875 L 197.183594 58.035156 Z M 200.246094 58.035156 " fill-opacity="1" fill-rule="nonzero"/></g><g clip-path="url(#e913c55a8e)"><path fill="#000000" d="M 172.332031 63.824219 C 172.144531 63.824219 171.972656 63.726562 171.882812 63.566406 L 170.347656 60.929688 C 170.257812 60.769531 170.257812 60.574219 170.347656 60.414062 L 185.839844 33.769531 C 185.933594 33.609375 186.105469 33.507812 186.289062 33.507812 C 186.476562 33.507812 186.648438 33.609375 186.738281 33.769531 L 200.699219 57.777344 C 200.789062 57.9375 200.789062 58.132812 200.699219 58.292969 C 200.605469 58.453125 200.433594 58.550781 200.246094 58.550781 L 197.183594 58.550781 C 196.996094 58.550781 196.824219 58.453125 196.734375 58.292969 L 186.289062 40.332031 L 172.78125 63.566406 C 172.6875 63.726562 172.515625 63.824219 172.332031 63.824219 Z M 171.398438 60.671875 L 172.332031 62.273438 L 185.839844 39.039062 C 185.933594 38.878906 186.105469 38.78125 186.289062 38.78125 C 186.476562 38.78125 186.648438 38.878906 186.738281 39.039062 L 197.484375 57.519531 L 199.347656 57.519531 L 186.289062 35.058594 Z M 171.398438 60.671875 " fill-opacity="1" fill-rule="nonzero"/></g></svg>
